<?xml version="1.0" encoding="UTF-8" standalone="no"?>
<!DOCTYPE svg PUBLIC "-//W3C//DTD SVG 1.1//EN" "http://www.w3.org/Graphics/SVG/1.1/DTD/svg11.dtd">
<svg width="100%" height="100%" viewBox="0 0 226 45" version="1.1" xmlns="http://www.w3.org/2000/svg" xmlns:xlink="http://www.w3.org/1999/xlink" xml:space="preserve" xmlns:serif="http://www.serif.com/" style="fill-rule:evenodd;clip-rule:evenodd;stroke-linejoin:round;stroke-miterlimit:2;">
    <g transform="matrix(1,0,0,1,-840.546,-1113.92)">
        <g transform="matrix(1,0,0,1,-299.086,143.059)">
            <g transform="matrix(1,0,0,1,1,0)">
                <path d="M1144.93,1015.87L1138.63,1015.87L1138.63,981.066L1144.93,981.066L1144.93,984.666L1145.83,984.666C1146.5,983.299 1147.46,982.241 1148.73,981.491C1150,980.741 1151.62,980.366 1153.58,980.366C1155.05,980.366 1156.44,980.649 1157.76,981.216C1159.07,981.782 1160.22,982.607 1161.21,983.691C1162.19,984.774 1162.97,986.099 1163.56,987.666C1164.14,989.232 1164.43,991.016 1164.43,993.016L1164.43,993.916C1164.43,995.949 1164.15,997.749 1163.58,999.316C1163.02,1000.88 1162.25,1002.21 1161.28,1003.29C1160.32,1004.37 1159.17,1005.19 1157.86,1005.74C1156.54,1006.29 1155.12,1006.57 1153.58,1006.57C1152.45,1006.57 1151.46,1006.45 1150.63,1006.22C1149.8,1005.98 1149.07,1005.67 1148.46,1005.27C1147.84,1004.87 1147.32,1004.41 1146.91,1003.89C1146.49,1003.37 1146.13,1002.83 1145.83,1002.27L1144.93,1002.27L1144.93,1015.87ZM1151.53,1000.57C1153.5,1000.57 1155.09,999.957 1156.31,998.741C1157.52,997.524 1158.13,995.866 1158.13,993.766L1158.13,993.166C1158.13,991.066 1157.52,989.407 1156.31,988.191C1155.09,986.974 1153.5,986.366 1151.53,986.366C1149.57,986.366 1147.97,986.991 1146.76,988.241C1145.54,989.491 1144.93,991.132 1144.93,993.166L1144.93,993.766C1144.93,995.799 1145.54,997.441 1146.76,998.691C1147.97,999.941 1149.57,1000.57 1151.53,1000.57Z" style="fill-rule:nonzero;"/>
            </g>
            <g transform="matrix(1,0,0,1,1,0)">
                <path d="M1176.08,995.516C1176.12,996.249 1176.29,996.924 1176.61,997.541C1176.92,998.157 1177.36,998.691 1177.91,999.141C1178.46,999.591 1179.09,999.941 1179.81,1000.19C1180.52,1000.44 1181.28,1000.57 1182.08,1000.57C1183.65,1000.57 1184.85,1000.29 1185.68,999.741C1186.52,999.191 1187.12,998.532 1187.48,997.766L1192.88,1000.77C1192.58,1001.4 1192.16,1002.06 1191.63,1002.74C1191.1,1003.42 1190.41,1004.05 1189.56,1004.62C1188.71,1005.18 1187.67,1005.65 1186.46,1006.02C1185.24,1006.38 1183.82,1006.57 1182.18,1006.57C1180.32,1006.57 1178.62,1006.27 1177.08,1005.67C1175.55,1005.07 1174.22,1004.2 1173.11,1003.07C1171.99,1001.93 1171.12,1000.55 1170.51,998.916C1169.89,997.282 1169.58,995.432 1169.58,993.366L1169.58,993.066C1169.58,991.166 1169.91,989.432 1170.56,987.866C1171.21,986.299 1172.1,984.966 1173.23,983.866C1174.37,982.766 1175.69,981.907 1177.21,981.291C1178.72,980.674 1180.35,980.366 1182.08,980.366C1184.21,980.366 1186.05,980.741 1187.58,981.491C1189.12,982.241 1190.38,983.191 1191.38,984.341C1192.38,985.491 1193.12,986.757 1193.58,988.141C1194.05,989.524 1194.28,990.866 1194.28,992.166L1194.28,995.516L1176.08,995.516ZM1182.03,986.066C1180.43,986.066 1179.13,986.474 1178.13,987.291C1177.13,988.107 1176.48,989.049 1176.18,990.116L1187.88,990.116C1187.68,988.949 1187.06,987.982 1186.01,987.216C1184.96,986.449 1183.63,986.066 1182.03,986.066Z" style="fill-rule:nonzero;"/>
            </g>
            <g transform="matrix(1,0,0,1,1,0)">
                <path d="M1206.68,995.516C1206.71,996.249 1206.89,996.924 1207.21,997.541C1207.52,998.157 1207.96,998.691 1208.51,999.141C1209.06,999.591 1209.69,999.941 1210.41,1000.19C1211.12,1000.44 1211.88,1000.57 1212.68,1000.57C1214.25,1000.57 1215.45,1000.29 1216.28,999.741C1217.12,999.191 1217.71,998.532 1218.08,997.766L1223.48,1000.77C1223.18,1001.4 1222.77,1002.06 1222.23,1002.74C1221.7,1003.42 1221.01,1004.05 1220.16,1004.62C1219.31,1005.18 1218.27,1005.65 1217.06,1006.02C1215.84,1006.38 1214.41,1006.57 1212.78,1006.57C1210.91,1006.57 1209.21,1006.27 1207.68,1005.67C1206.15,1005.07 1204.82,1004.2 1203.71,1003.07C1202.59,1001.93 1201.72,1000.55 1201.11,998.916C1200.49,997.282 1200.18,995.432 1200.18,993.366L1200.18,993.066C1200.18,991.166 1200.51,989.432 1201.16,987.866C1201.81,986.299 1202.7,984.966 1203.83,983.866C1204.96,982.766 1206.29,981.907 1207.81,981.291C1209.32,980.674 1210.95,980.366 1212.68,980.366C1214.82,980.366 1216.65,980.741 1218.18,981.491C1219.71,982.241 1220.98,983.191 1221.98,984.341C1222.98,985.491 1223.71,986.757 1224.18,988.141C1224.65,989.524 1224.88,990.866 1224.88,992.166L1224.88,995.516L1206.68,995.516ZM1212.63,986.066C1211.03,986.066 1209.73,986.474 1208.73,987.291C1207.73,988.107 1207.08,989.049 1206.78,990.116L1218.48,990.116C1218.28,988.949 1217.66,987.982 1216.61,987.216C1215.56,986.449 1214.23,986.066 1212.63,986.066Z" style="fill-rule:nonzero;"/>
            </g>
            <g transform="matrix(1,0,0,1,1,0)">
                <path d="M1230.53,981.066L1241.03,981.066L1241.03,984.666L1241.93,984.666C1242.4,983.299 1243.19,982.241 1244.31,981.491C1245.42,980.741 1246.77,980.366 1248.33,980.366C1250.8,980.366 1252.78,981.141 1254.28,982.691C1255.78,984.241 1256.53,986.599 1256.53,989.766L1256.53,990.866L1250.03,991.466L1250.03,990.766C1250.03,989.399 1249.68,988.307 1248.98,987.491C1248.28,986.674 1247.23,986.266 1245.83,986.266C1244.43,986.266 1243.33,986.749 1242.53,987.716C1241.73,988.682 1241.33,990.066 1241.33,991.866L1241.33,999.866L1247.03,999.866L1247.03,1005.87L1229.93,1005.87L1229.93,999.866L1235.03,999.866L1235.03,987.066L1230.53,987.066L1230.53,981.066Z" style="fill-rule:nonzero;"/>
            </g>
            <path d="M1261.13,970.866L1286.33,970.866L1286.33,977.166L1277.03,977.166L1277.03,1005.87L1270.43,1005.87L1270.43,977.166L1261.13,977.166L1261.13,970.866Z" style="fill-rule:nonzero;"/>
            <g transform="matrix(1,0,0,1,-4,0)">
                <path d="M1310.25,1005.52C1309.81,1005.7 1309.35,1005.87 1308.86,1006.02C1307.64,1006.38 1306.21,1006.57 1304.58,1006.57C1302.71,1006.57 1301.02,1006.27 1299.48,1005.67C1297.95,1005.07 1296.62,1004.2 1295.51,1003.07C1294.39,1001.93 1293.52,1000.55 1292.91,998.916C1292.29,997.282 1291.98,995.432 1291.98,993.366L1291.98,993.066C1291.98,991.166 1292.31,989.432 1292.96,987.866C1293.61,986.299 1294.5,984.966 1295.63,983.866C1296.77,982.766 1298.09,981.907 1299.61,981.291C1301.12,980.674 1302.75,980.366 1304.48,980.366C1306.62,980.366 1308.45,980.741 1309.98,981.491C1311.52,982.241 1312.78,983.191 1313.78,984.341C1314.78,985.491 1315.52,986.757 1315.98,988.141C1316.45,989.524 1316.68,990.866 1316.68,992.166L1316.68,995.516L1298.48,995.516C1298.52,996.249 1298.69,996.924 1299.01,997.541C1299.32,998.157 1299.76,998.691 1300.31,999.141C1300.86,999.591 1301.49,999.941 1302.21,1000.19C1302.92,1000.44 1303.68,1000.57 1304.48,1000.57C1306.05,1000.57 1307.25,1000.29 1308.08,999.741C1308.91,999.191 1309.52,998.532 1309.88,997.766L1313.54,999.796C1311.76,1001.15 1310.53,1003.19 1310.25,1005.52ZM1304.43,986.066C1302.83,986.066 1301.53,986.474 1300.53,987.291C1299.53,988.107 1298.88,989.049 1298.58,990.116L1310.28,990.116C1310.08,988.949 1309.46,987.982 1308.41,987.216C1307.36,986.449 1306.03,986.066 1304.43,986.066Z"/>
            </g>
            <g transform="matrix(1,0,0,1,-7,0)">
                <path d="M1324.67,998.59L1329.93,996.866C1330.2,997.932 1330.76,998.866 1331.61,999.666C1332.46,1000.47 1333.77,1000.87 1335.53,1000.87C1337.1,1000.87 1338.17,1000.62 1338.76,1000.14C1339.34,999.657 1339.63,999.132 1339.63,998.566C1339.63,998.232 1339.56,997.924 1339.41,997.641C1339.26,997.357 1338.98,997.091 1338.58,996.841C1338.18,996.591 1337.64,996.382 1336.96,996.216C1336.27,996.049 1335.41,995.916 1334.38,995.816C1331.58,995.582 1329.36,994.857 1327.71,993.641C1326.06,992.424 1325.23,990.632 1325.23,988.266L1325.23,987.966C1325.23,986.732 1325.5,985.649 1326.03,984.716C1326.57,983.782 1327.27,982.991 1328.13,982.341C1329,981.691 1330,981.199 1331.13,980.866C1332.27,980.532 1333.43,980.366 1334.63,980.366C1336.2,980.366 1337.56,980.557 1338.71,980.941C1339.86,981.324 1340.83,981.824 1341.63,982.441C1342.43,983.057 1343.08,983.741 1343.58,984.491C1344.08,985.241 1344.46,985.966 1344.73,986.666L1339.03,988.966C1338.73,988.066 1338.21,987.357 1337.48,986.841C1336.75,986.324 1335.8,986.066 1334.63,986.066C1333.57,986.066 1332.77,986.257 1332.23,986.641C1331.7,987.024 1331.43,987.499 1331.43,988.066C1331.43,988.866 1331.85,989.441 1332.68,989.791C1333.52,990.141 1335.03,990.432 1337.23,990.666C1339.77,990.932 1341.83,991.691 1343.43,992.941C1345.03,994.191 1345.83,995.932 1345.83,998.166L1345.83,998.466C1345.83,1000.93 1344.93,1002.9 1343.13,1004.37C1341.33,1005.83 1338.8,1006.57 1335.53,1006.57C1333.6,1006.57 1331.95,1006.32 1330.58,1005.82C1330.44,1005.76 1330.29,1005.71 1330.15,1005.65C1329.81,1002.4 1327.63,999.696 1324.67,998.59Z"/>
            </g>
            <g transform="matrix(1,0,0,1,-11,0)">
                <path d="M1353.43,981.066L1360.78,981.066L1360.78,970.866L1367.08,970.866L1367.08,981.066L1376.03,981.066L1376.03,987.066L1367.08,987.066L1367.08,998.366C1367.08,999.366 1367.53,999.866 1368.43,999.866L1375.13,999.866L1375.13,1005.87L1364.63,1005.87C1363.5,1005.87 1362.57,1005.5 1361.86,1004.77C1361.14,1004.03 1360.78,1003.1 1360.78,1001.97L1360.78,987.066L1353.43,987.066L1353.43,981.066Z" style="fill-rule:nonzero;"/>
            </g>
        </g>
        <g transform="matrix(0.783827,0,0,0.783827,235.743,247.64)">
            <circle cx="994.943" cy="1150.74" r="6.617" style="fill:rgb(162,0,255);"/>
        </g>
    </g>
</svg>
